# xmcd CD database file
#
# Track frame offsets:
#	182
#	13237
#	24477
#	36172
#	47955
#	60040
#	72327
#	84767
#	97300
#	107630
#	118080
#	129802
#	142655
#	156700
#	171250
#	184632
#
# Disc length: 2626 seconds
#
# Revision: 0
# Processed by: cddbd v1.5.2PL0 Copyright (c) Steve Scherf et al.
# Submitted via: CDex 1.51
#
DISCID=d20a4010
DTITLE=Luis Kalaff y los Alegres Dominicanos - El Rey del Merengue
DYEAR=1994
DGENRE=Merengue
TTITLE0=1. La mecha
TTITLE1=2, La salve de las Antillas
TTITLE2=3. Limpiando la hebilla
TTITLE3=4. Pa´despues venir llorando
TTITLE4=5. Alabado sea Dios
TTITLE5=6. Madora che che
TTITLE6=7. Cada tierra con su ritmo
TTITLE7=8. Ahí viene la nena
TTITLE8=9. Ahora me viene llorando
TTITLE9=10. Rio abajo voy
TTITLE10=11. El Fucu
TTITLE11=12. Tu si sabes como fue
TTITLE12=13. El ascensor
TTITLE13=14. Las cotorras
TTITLE14=15. Cógelo que eso es tuyo
TTITLE15=16. Las cacatas
EXTD=YEAR: 1994
EXTT0=
EXTT1=
EXTT2=
EXTT3=
EXTT4=
EXTT5=
EXTT6=
EXTT7=
EXTT8=
EXTT9=
EXTT10=
EXTT11=
EXTT12=
EXTT13=
EXTT14=
EXTT15=
PLAYORDER=
